<svg width="48" height="48" viewBox="0 0 48 48" fill="none" xmlns="http://www.w3.org/2000/svg">
<path d="M32.4286 5.45098H15.5714C15.0191 5.45098 14.5714 5.00327 14.5714 4.45098V3C14.5714 2.44772 15.0191 2 15.5714 2H32.4286C32.9808 2 33.4286 2.44772 33.4286 3V4.45098C33.4286 5.00327 32.9808 5.45098 32.4286 5.45098Z" stroke="#2D2A2B"/>
<path d="M30.6466 45.9999H18.0471C17.522 45.9999 17.0863 45.5938 17.0495 45.0699L14.5723 9.76465H34.2866L31.6438 45.0746C31.6047 45.5965 31.1699 45.9999 30.6466 45.9999Z" stroke="#2D2A2B"/>
<path d="M35 9.7649H13C12.4477 9.7649 12 9.31718 12 8.7649V6.45117C12 5.89889 12.4477 5.45117 13 5.45117H35C35.5523 5.45117 36 5.89889 36 6.45117V8.7649C36 9.31718 35.5523 9.7649 35 9.7649Z" stroke="#2D2A2B"/>
<path d="M19.6334 25.42H20.4834C20.4767 25.2067 20.4967 24.9967 20.5434 24.79C20.5967 24.5767 20.68 24.3867 20.7934 24.22C20.9067 24.0533 21.05 23.92 21.2234 23.82C21.4034 23.7133 21.6167 23.66 21.8634 23.66C22.05 23.66 22.2267 23.69 22.3934 23.75C22.56 23.81 22.7034 23.8967 22.8234 24.01C22.95 24.1233 23.05 24.26 23.1234 24.42C23.1967 24.5733 23.2334 24.7467 23.2334 24.94C23.2334 25.1867 23.1934 25.4033 23.1134 25.59C23.04 25.7767 22.9267 25.95 22.7734 26.11C22.6267 26.27 22.44 26.43 22.2134 26.59C21.9867 26.7433 21.7234 26.9133 21.4234 27.1C21.1767 27.2467 20.94 27.4033 20.7134 27.57C20.4867 27.7367 20.2834 27.93 20.1034 28.15C19.9234 28.37 19.7734 28.63 19.6534 28.93C19.54 29.2233 19.4667 29.58 19.4334 30H24.0634V29.25H20.4234C20.4634 29.03 20.5467 28.8367 20.6734 28.67C20.8067 28.4967 20.9634 28.3367 21.1434 28.19C21.33 28.0433 21.5334 27.9067 21.7534 27.78C21.9734 27.6467 22.1934 27.5133 22.4134 27.38C22.6334 27.24 22.8467 27.0933 23.0534 26.94C23.26 26.7867 23.4434 26.6167 23.6034 26.43C23.7634 26.2367 23.89 26.02 23.9834 25.78C24.0834 25.54 24.1334 25.2633 24.1334 24.95C24.1334 24.6167 24.0734 24.3233 23.9534 24.07C23.84 23.8167 23.6834 23.6067 23.4834 23.44C23.2834 23.2667 23.0467 23.1367 22.7734 23.05C22.5067 22.9567 22.22 22.91 21.9134 22.91C21.54 22.91 21.2067 22.9733 20.9134 23.1C20.62 23.2267 20.3734 23.4033 20.1734 23.63C19.98 23.85 19.8367 24.1133 19.7434 24.42C19.65 24.7267 19.6134 25.06 19.6334 25.42ZM27.64 27.59H25.26L27.62 24.12H27.64V27.59ZM28.44 27.59V22.91H27.76L24.53 27.52V28.34H27.64V30H28.44V28.34H29.4V27.59H28.44Z" fill="#2D2A2B"/>
</svg>
