<svg width="32" height="32" viewBox="0 0 32 32" fill="none" xmlns="http://www.w3.org/2000/svg">
<rect opacity="0.1" width="32" height="32" rx="16" fill="#D3A762"/>
<path d="M16.0013 24.3333C11.3988 24.3333 7.66797 20.6025 7.66797 16C7.66797 11.3975 11.3988 7.66667 16.0013 7.66667C20.6038 7.66667 24.3346 11.3975 24.3346 16C24.3346 20.6025 20.6038 24.3333 16.0013 24.3333ZM16.0013 22.6667C17.7694 22.6667 19.4651 21.9643 20.7153 20.7141C21.9656 19.4638 22.668 17.7681 22.668 16C22.668 14.2319 21.9656 12.5362 20.7153 11.286C19.4651 10.0357 17.7694 9.33334 16.0013 9.33334C14.2332 9.33334 12.5375 10.0357 11.2873 11.286C10.037 12.5362 9.33464 14.2319 9.33464 16C9.33464 17.7681 10.037 19.4638 11.2873 20.7141C12.5375 21.9643 14.2332 22.6667 16.0013 22.6667ZM15.168 11.8333H16.8346V13.5H15.168V11.8333ZM15.168 15.1667H16.8346V20.1667H15.168V15.1667Z" fill="#2D2A2B"/>
</svg>
