<svg width="21" height="20" viewBox="0 0 21 20" fill="none" xmlns="http://www.w3.org/2000/svg">
<path d="M18 13.6833V16.63C18.0001 16.841 17.9202 17.0441 17.7763 17.1985C17.6325 17.3528 17.4355 17.4469 17.225 17.4617C16.8608 17.4867 16.5633 17.5 16.3333 17.5C8.96917 17.5 3 11.5308 3 4.16667C3 3.93667 3.0125 3.63917 3.03833 3.275C3.0531 3.06454 3.14715 2.86751 3.3015 2.72367C3.45585 2.57984 3.65902 2.4999 3.87 2.5H6.81667C6.92003 2.4999 7.01975 2.53822 7.09644 2.60752C7.17313 2.67682 7.22133 2.77215 7.23167 2.875C7.25083 3.06667 7.26833 3.21917 7.285 3.335C7.45061 4.49077 7.79 5.61486 8.29167 6.66917C8.37083 6.83583 8.31917 7.035 8.16917 7.14167L6.37083 8.42667C7.47038 10.9887 9.51212 13.0305 12.0742 14.13L13.3575 12.335C13.41 12.2617 13.4865 12.2091 13.5737 12.1864C13.661 12.1637 13.7535 12.1723 13.835 12.2108C14.8892 12.7116 16.013 13.0501 17.1683 13.215C17.2842 13.2317 17.4367 13.25 17.6267 13.2683C17.7294 13.2789 17.8245 13.3271 17.8936 13.4038C17.9628 13.4805 18.001 13.5801 18.0008 13.6833H18Z" fill="#2D2A2B"/>
</svg>
